<svg width="1440" height="238" viewBox="0 0 1440 238" fill="none" xmlns="http://www.w3.org/2000/svg">
<circle cx="-99.259" cy="117.817" r="97.0594" transform="rotate(-14.7866 -99.259 117.817)" stroke="#383838" stroke-width="1.9608"/>
<circle cx="11.3704" cy="117.817" r="97.0594" transform="rotate(-14.7866 11.3704 117.817)" stroke="#383838" stroke-width="1.9608"/>
<circle cx="122" cy="117.817" r="97.0594" transform="rotate(-14.7866 122 117.817)" stroke="#383838" stroke-width="1.9608"/>
<circle cx="232.629" cy="117.817" r="97.0594" transform="rotate(-14.7866 232.629 117.817)" stroke="#383838" stroke-width="1.9608"/>
<circle cx="343.259" cy="117.817" r="97.0594" transform="rotate(-14.7866 343.259 117.817)" stroke="#383838" stroke-width="1.9608"/>
<circle cx="453.888" cy="117.817" r="97.0594" transform="rotate(-14.7866 453.888 117.817)" stroke="#383838" stroke-width="1.9608"/>
<circle cx="564.517" cy="117.817" r="97.0594" transform="rotate(-14.7866 564.517 117.817)" stroke="#383838" stroke-width="1.9608"/>
<circle cx="675.147" cy="117.817" r="97.0594" transform="rotate(-14.7866 675.147 117.817)" stroke="#383838" stroke-width="1.9608"/>
<circle cx="785.776" cy="117.817" r="97.0594" transform="rotate(-14.7866 785.776 117.817)" stroke="#383838" stroke-width="1.9608"/>
<circle cx="896.406" cy="117.817" r="97.0594" transform="rotate(-14.7866 896.406 117.817)" stroke="#383838" stroke-width="1.9608"/>
<circle cx="1007.03" cy="117.817" r="97.0594" transform="rotate(-14.7866 1007.03 117.817)" stroke="#383838" stroke-width="1.9608"/>
<circle cx="1117.66" cy="117.817" r="97.0594" transform="rotate(-14.7866 1117.66 117.817)" stroke="#383838" stroke-width="1.9608"/>
<circle cx="1228.29" cy="117.817" r="97.0594" transform="rotate(-14.7866 1228.29 117.817)" stroke="#383838" stroke-width="1.9608"/>
<circle cx="1338.92" cy="117.817" r="97.0594" transform="rotate(-14.7866 1338.92 117.817)" stroke="#383838" stroke-width="1.9608"/>
<circle cx="1449.55" cy="117.817" r="97.0594" transform="rotate(-14.7866 1449.55 117.817)" stroke="#383838" stroke-width="1.9608"/>
</svg>
