<svg width="1440" height="142" viewBox="0 0 1440 142" fill="none" xmlns="http://www.w3.org/2000/svg">
<g clip-path="url(#clip0_205_283)">
<path opacity="0.8" d="M0 57C72.0254 57 72.0254 85 144.051 85C216.076 85 216.076 57 288.101 57C360.127 57 360.127 85 431.983 85C504.011 85 504.011 57 575.865 57C647.892 57 647.892 85 719.747 85C791.774 85 791.774 57 863.795 57C935.822 57 935.822 85 1007.85 85C1079.87 85 1079.87 57 1151.9 57C1223.92 57 1223.92 85 1295.95 85C1367.97 85 1367.97 57 1440 57" stroke="#4F4F4F" stroke-width="4.8" stroke-miterlimit="10" stroke-linecap="round"/>
<path opacity="0.8" d="M0 3C72.0254 3 72.0254 31 144.051 31C216.076 31 216.076 3 288.101 3C360.127 3 360.127 31 431.983 31C504.011 31 504.011 3 575.865 3C647.892 3 647.892 31 719.747 31C791.774 31 791.774 3 863.795 3C935.822 3 935.822 31 1007.85 31C1079.87 31 1079.87 3 1151.9 3C1223.92 3 1223.92 31 1295.95 31C1367.97 31 1367.97 3 1440 3" stroke="#4F4F4F" stroke-width="4.8" stroke-miterlimit="10" stroke-linecap="round"/>
<path opacity="0.8" d="M0 111C72.0254 111 72.0254 139 144.051 139C216.076 139 216.076 111 288.101 111C360.127 111 360.127 139 431.983 139C504.011 139 504.011 111 575.865 111C647.892 111 647.892 139 719.747 139C791.774 139 791.774 111 863.795 111C935.822 111 935.822 139 1007.85 139C1079.87 139 1079.87 111 1151.9 111C1223.92 111 1223.92 139 1295.95 139C1367.97 139 1367.97 111 1440 111" stroke="#4F4F4F" stroke-width="4.8" stroke-miterlimit="10" stroke-linecap="round"/>
</g>
<defs>
<clipPath id="clip0_205_283">
<rect width="1446" height="142" fill="white" transform="translate(-3)"/>
</clipPath>
</defs>
</svg>
